<svg xmlns="http://www.w3.org/2000/svg" width="49" height="373" viewBox="0 0 49 373" fill="none">
  <path fill-rule="evenodd" clip-rule="evenodd" d="M-142.34 42.9327C-105.846 48.5069 -65.3578 43.0939 -35.5906 64.8442C-4.50823 87.5555 7.69128 126.163 19.9951 161.548C33.825 201.321 63.0582 248.543 40.2815 283.043C16.0405 319.761 -45.1849 306.538 -86.953 323.543C-115.701 335.247 -136.366 359.819 -166.721 367.321C-199.099 375.322 -232.828 374.251 -266.093 367.812C-304.215 360.433 -344.334 352.779 -373.394 327.316C-403.99 300.508 -423.548 262.681 -430.362 223.881C-437.151 185.218 -423.486 147.805 -411.383 110.995C-398.818 72.7753 -396.549 20.552 -358.34 4.82296C-317.321 -12.0622 -272.611 27.5816 -227.91 35.4682C-199.164 40.54 -171.181 38.5272 -142.34 42.9327Z" fill="#D98400"/>
</svg>